<?xml version="1.0" encoding="UTF-8" standalone="no"?>
<!-- Created with Inkscape (http://www.inkscape.org/) -->

<svg
   width="240"
   height="320"
   viewBox="0 0 63.499999 84.666669"
   version="1.1"
   id="svg8"
   inkscape:version="1.1.1 (1:1.1+202109281949+c3084ef5ed)"
   sodipodi:docname="assign-fail.svg"
   inkscape:export-filename="/home/alex/dynajig/assign-pass.png"
   inkscape:export-xdpi="96"
   inkscape:export-ydpi="96"
   xmlns:inkscape="http://www.inkscape.org/namespaces/inkscape"
   xmlns:sodipodi="http://sodipodi.sourceforge.net/DTD/sodipodi-0.dtd"
   xmlns="http://www.w3.org/2000/svg"
   xmlns:svg="http://www.w3.org/2000/svg"
   xmlns:rdf="http://www.w3.org/1999/02/22-rdf-syntax-ns#"
   xmlns:cc="http://creativecommons.org/ns#"
   xmlns:dc="http://purl.org/dc/elements/1.1/">
  <defs
     id="defs2">
    <marker
       style="overflow:visible"
       id="marker76464"
       refX="0"
       refY="0"
       orient="auto"
       inkscape:stockid="TriangleOutM"
       inkscape:isstock="true">
      <path
         transform="scale(0.4)"
         style="fill:context-stroke;fill-rule:evenodd;stroke:context-stroke;stroke-width:1pt"
         d="M 5.77,0 -2.88,5 V -5 Z"
         id="path76462" />
    </marker>
    <marker
       style="overflow:visible"
       id="TriangleInS"
       refX="0"
       refY="0"
       orient="auto"
       inkscape:stockid="TriangleInS"
       inkscape:isstock="true">
      <path
         transform="scale(-0.2)"
         style="fill:context-stroke;fill-rule:evenodd;stroke:context-stroke;stroke-width:1pt"
         d="M 5.77,0 -2.88,5 V -5 Z"
         id="path3312" />
    </marker>
    <marker
       style="overflow:visible"
       id="TriangleOutL"
       refX="0"
       refY="0"
       orient="auto"
       inkscape:stockid="TriangleOutL"
       inkscape:isstock="true">
      <path
         transform="scale(0.8)"
         style="fill:context-stroke;fill-rule:evenodd;stroke:context-stroke;stroke-width:1pt"
         d="M 5.77,0 -2.88,5 V -5 Z"
         id="path3315" />
    </marker>
    <marker
       style="overflow:visible"
       id="TriangleOutM"
       refX="0"
       refY="0"
       orient="auto"
       inkscape:stockid="TriangleOutM"
       inkscape:isstock="true">
      <path
         transform="scale(0.4)"
         style="fill:context-stroke;fill-rule:evenodd;stroke:context-stroke;stroke-width:1pt"
         d="M 5.77,0 -2.88,5 V -5 Z"
         id="path3318" />
    </marker>
    <marker
       style="overflow:visible"
       id="marker76464-9"
       refX="0"
       refY="0"
       orient="auto"
       inkscape:stockid="TriangleOutM"
       inkscape:isstock="true">
      <path
         transform="scale(0.4)"
         style="fill:context-stroke;fill-rule:evenodd;stroke:context-stroke;stroke-width:1pt"
         d="M 5.77,0 -2.88,5 V -5 Z"
         id="path76462-7" />
    </marker>
  </defs>
  <sodipodi:namedview
     id="base"
     pagecolor="#ffffff"
     bordercolor="#666666"
     borderopacity="1.0"
     inkscape:pageopacity="0.0"
     inkscape:pageshadow="2"
     inkscape:zoom="1.4"
     inkscape:cx="-68.214286"
     inkscape:cy="210.35714"
     inkscape:document-units="mm"
     inkscape:current-layer="layer1"
     showgrid="false"
     units="px"
     inkscape:window-width="1848"
     inkscape:window-height="1016"
     inkscape:window-x="72"
     inkscape:window-y="27"
     inkscape:window-maximized="1"
     inkscape:pagecheckerboard="0"
     height="159px" />
  <metadata
     id="metadata5">
    <rdf:RDF>
      <cc:Work
         rdf:about="">
        <dc:format>image/svg+xml</dc:format>
        <dc:type
           rdf:resource="http://purl.org/dc/dcmitype/StillImage" />
      </cc:Work>
    </rdf:RDF>
  </metadata>
  <g
     inkscape:label="Layer 1"
     inkscape:groupmode="layer"
     id="layer1"
     transform="translate(0,-254.66662)">
    <text
       xml:space="preserve"
       style="font-style:normal;font-weight:normal;font-size:16.3938px;line-height:0.95;font-family:sans-serif;letter-spacing:0px;word-spacing:0px;fill:#000000;fill-opacity:1;stroke:none;stroke-width:0.409846"
       x="30.989546"
       y="281.80084"
       id="text15517"
       inkscape:export-filename="/home/alex/dynajig/left.png"
       inkscape:export-xdpi="96"
       inkscape:export-ydpi="96"><tspan
         sodipodi:role="line"
         style="text-align:center;text-anchor:middle;stroke-width:0.409846"
         x="30.989546"
         y="281.80084"
         id="tspan97786">FAIL</tspan></text>
    <g
       id="g114048"
       transform="translate(0,-1.3696481)">
      <rect
         id="rect29"
         width="20.47407"
         height="33.127739"
         x="7.550878"
         y="296.66788"
         style="fill:#4d4d4d;stroke-width:0.264583"
         rx="1.4790821"
         ry="1.4790821" />
      <circle
         id="path53-6"
         cx="17.787912"
         cy="307.78629"
         r="7.9433742"
         style="fill:#000000;stroke:none;stroke-width:0.264583;stroke-opacity:1" />
      <circle
         id="path53"
         cx="17.787912"
         cy="307.25711"
         r="7.9433742"
         style="fill:#999999;stroke:none;stroke-width:0.264583;stroke-opacity:1" />
      <circle
         style="fill:#000000;stroke:none;stroke-width:0.2;stroke-miterlimit:4;stroke-dasharray:none;stroke-opacity:1"
         id="path1296"
         cx="9.1427402"
         cy="298.25974"
         r="1.49186" />
      <g
         id="g2159"
         transform="translate(-12.412795,29.641344)">
        <circle
           id="path53-9"
           cx="30.200708"
           cy="277.61575"
           r="2.2734745"
           style="fill:#000000;stroke:none;stroke-width:0.0757263;stroke-opacity:1" />
      </g>
      <circle
         style="fill:#b3b3b3;stroke:none;stroke-width:0.2;stroke-miterlimit:4;stroke-dasharray:none;stroke-opacity:1"
         id="path1296-60"
         cx="17.787912"
         cy="307.25711"
         r="1.49186" />
      <circle
         style="fill:#000000;stroke:none;stroke-width:0.2;stroke-miterlimit:4;stroke-dasharray:none;stroke-opacity:1"
         id="path1296-7"
         cx="26.433088"
         cy="298.25974"
         r="1.49186" />
      <circle
         style="fill:#000000;stroke:none;stroke-width:0.2;stroke-miterlimit:4;stroke-dasharray:none;stroke-opacity:1"
         id="path1296-6"
         cx="26.433088"
         cy="328.20377"
         r="1.49186" />
      <circle
         style="fill:#000000;stroke:none;stroke-width:0.2;stroke-miterlimit:4;stroke-dasharray:none;stroke-opacity:1"
         id="path1296-2"
         cx="9.1427402"
         cy="328.20377"
         r="1.49186" />
    </g>
    <path
       style="fill:#ff0000;stroke-width:0.02764"
       d="m 43.151477,322.61078 c -1.070864,-0.0711 -1.904972,-0.22976 -2.77649,-0.52801 -0.883308,-0.30228 -1.818708,-0.78301 -2.558033,-1.31466 -0.851592,-0.61237 -1.702211,-1.46299 -2.314584,-2.31458 -0.452216,-0.62887 -0.988443,-1.64051 -1.237712,-2.33504 -1.209267,-3.36938 -0.599452,-6.99715 1.637342,-9.74048 0.307126,-0.37668 1.016282,-1.08583 1.39296,-1.39296 2.545239,-2.07528 5.907427,-2.76438 9.063297,-1.8576 0.530402,0.15241 1.010032,0.33748 1.539346,0.59398 0.770442,0.37336 1.364565,0.7497 1.994871,1.26362 0.376678,0.30713 1.085834,1.01628 1.39296,1.39296 1.247511,1.53002 2.000819,3.35539 2.205885,5.34518 0.04398,0.42676 0.04398,1.4804 0,1.90716 -0.246575,2.39255 -1.287168,4.54382 -2.997652,6.19719 -0.722173,0.69806 -1.475615,1.23657 -2.366988,1.69177 -1.136878,0.58056 -2.308459,0.92703 -3.551741,1.05034 -0.312296,0.031 -1.193188,0.0564 -1.423461,0.0411 z m 1.575481,-0.99228 c 1.786609,-0.24618 3.370486,-0.94497 4.697851,-2.07265 0.297091,-0.2524 0.881252,-0.84384 1.119825,-1.13378 1.091635,-1.32667 1.744708,-2.84277 1.995582,-4.63273 0.06761,-0.48235 0.06761,-1.7228 0,-2.20515 -0.153572,-1.09572 -0.434035,-2.0238 -0.88137,-2.91657 -1.241775,-2.47825 -3.5786,-4.27428 -6.256603,-4.80869 -0.698664,-0.13942 -0.994262,-0.16666 -1.808526,-0.16666 -0.814264,0 -1.109862,0.0272 -1.808526,0.16666 -2.659158,0.53065 -4.993641,2.31443 -6.231531,4.76153 -0.469112,0.92736 -0.755043,1.86095 -0.906774,2.96071 -0.06698,0.48548 -0.06698,1.72571 0,2.2112 0.217998,1.58006 0.764031,2.96424 1.646043,4.17269 1.560553,2.13811 3.877266,3.45276 6.526868,3.70375 0.380323,0.036 1.529375,0.0117 1.907161,-0.0403 z m -5.776763,-2.73041 c -0.29644,-0.29286 -0.846971,-0.83468 -1.223404,-1.20404 l -0.684423,-0.67158 1.815513,-1.8569 c 0.998532,-1.0213 1.933199,-1.97696 2.077038,-2.1237 l 0.261524,-0.26679 -2.077742,-2.14694 -2.077742,-2.14695 0.768048,-0.74976 c 0.422426,-0.41237 0.978332,-0.95723 1.235347,-1.2108 l 0.467299,-0.46103 2.072106,2.0836 c 1.139658,1.14598 2.08028,2.08361 2.090272,2.08361 0.01,0 0.917628,-0.92042 2.01697,-2.04537 1.099342,-1.12494 2.012482,-2.04536 2.029202,-2.04536 0.01672,0 0.292257,0.25844 0.612307,0.5743 0.320051,0.31586 0.867409,0.85591 1.216352,1.20011 l 0.634442,0.62582 -1.092682,1.11474 c -1.702312,1.73667 -2.967106,3.03765 -2.975473,3.06058 -0.0042,0.0115 0.903778,0.96942 2.017721,2.1287 1.113943,1.15928 2.028896,2.11735 2.033228,2.12903 0.009,0.0243 -2.418112,2.40629 -2.451952,2.40629 -0.01223,0 -0.934974,-0.92352 -2.050531,-2.05227 -1.115558,-1.12875 -2.036787,-2.05227 -2.047175,-2.05227 -0.01039,0 -0.934491,0.93596 -2.05356,2.07991 -1.119068,1.14395 -2.043453,2.07982 -2.054187,2.07972 -0.01074,-1.1e-4 -0.262059,-0.2398 -0.558498,-0.53265 z"
       id="path114342" />
  </g>
</svg>
