<?xml version="1.0" encoding="UTF-8" standalone="no"?>
<!-- Created with Inkscape (http://www.inkscape.org/) -->

<svg
   width="240"
   height="320"
   viewBox="0 0 63.499999 84.666669"
   version="1.1"
   id="svg8"
   inkscape:version="1.1.2 (1:1.1+202202050950+0a00cf5339)"
   sodipodi:docname="assign-wait.svg"
   inkscape:export-filename="/home/alex/dynajig/assign-wait.png"
   inkscape:export-xdpi="96"
   inkscape:export-ydpi="96"
   xmlns:inkscape="http://www.inkscape.org/namespaces/inkscape"
   xmlns:sodipodi="http://sodipodi.sourceforge.net/DTD/sodipodi-0.dtd"
   xmlns="http://www.w3.org/2000/svg"
   xmlns:svg="http://www.w3.org/2000/svg"
   xmlns:rdf="http://www.w3.org/1999/02/22-rdf-syntax-ns#"
   xmlns:cc="http://creativecommons.org/ns#"
   xmlns:dc="http://purl.org/dc/elements/1.1/">
  <defs
     id="defs2">
    <marker
       style="overflow:visible"
       id="marker76464"
       refX="0"
       refY="0"
       orient="auto"
       inkscape:stockid="TriangleOutM"
       inkscape:isstock="true">
      <path
         transform="scale(0.4)"
         style="fill:context-stroke;fill-rule:evenodd;stroke:context-stroke;stroke-width:1pt"
         d="M 5.77,0 -2.88,5 V -5 Z"
         id="path76462" />
    </marker>
    <marker
       style="overflow:visible"
       id="TriangleInS"
       refX="0"
       refY="0"
       orient="auto"
       inkscape:stockid="TriangleInS"
       inkscape:isstock="true">
      <path
         transform="scale(-0.2)"
         style="fill:context-stroke;fill-rule:evenodd;stroke:context-stroke;stroke-width:1pt"
         d="M 5.77,0 -2.88,5 V -5 Z"
         id="path3312" />
    </marker>
    <marker
       style="overflow:visible"
       id="TriangleOutL"
       refX="0"
       refY="0"
       orient="auto"
       inkscape:stockid="TriangleOutL"
       inkscape:isstock="true">
      <path
         transform="scale(0.8)"
         style="fill:context-stroke;fill-rule:evenodd;stroke:context-stroke;stroke-width:1pt"
         d="M 5.77,0 -2.88,5 V -5 Z"
         id="path3315" />
    </marker>
    <marker
       style="overflow:visible"
       id="TriangleOutM"
       refX="0"
       refY="0"
       orient="auto"
       inkscape:stockid="TriangleOutM"
       inkscape:isstock="true">
      <path
         transform="scale(0.4)"
         style="fill:context-stroke;fill-rule:evenodd;stroke:context-stroke;stroke-width:1pt"
         d="M 5.77,0 -2.88,5 V -5 Z"
         id="path3318" />
    </marker>
    <marker
       style="overflow:visible"
       id="marker76464-9"
       refX="0"
       refY="0"
       orient="auto"
       inkscape:stockid="TriangleOutM"
       inkscape:isstock="true">
      <path
         transform="scale(0.4)"
         style="fill:context-stroke;fill-rule:evenodd;stroke:context-stroke;stroke-width:1pt"
         d="M 5.77,0 -2.88,5 V -5 Z"
         id="path76462-7" />
    </marker>
  </defs>
  <sodipodi:namedview
     id="base"
     pagecolor="#ffffff"
     bordercolor="#666666"
     borderopacity="1.0"
     inkscape:pageopacity="0.0"
     inkscape:pageshadow="2"
     inkscape:zoom="1.4"
     inkscape:cx="76.785714"
     inkscape:cy="191.42857"
     inkscape:document-units="mm"
     inkscape:current-layer="layer1"
     showgrid="false"
     units="px"
     inkscape:window-width="1608"
     inkscape:window-height="1013"
     inkscape:window-x="72"
     inkscape:window-y="0"
     inkscape:window-maximized="1"
     inkscape:pagecheckerboard="0"
     height="159px" />
  <metadata
     id="metadata5">
    <rdf:RDF>
      <cc:Work
         rdf:about="">
        <dc:format>image/svg+xml</dc:format>
        <dc:type
           rdf:resource="http://purl.org/dc/dcmitype/StillImage" />
      </cc:Work>
    </rdf:RDF>
  </metadata>
  <g
     inkscape:label="Layer 1"
     inkscape:groupmode="layer"
     id="layer1"
     transform="translate(0,-254.66662)">
    <text
       xml:space="preserve"
       style="font-style:normal;font-weight:normal;font-size:10.2157px;line-height:0.95;font-family:sans-serif;letter-spacing:0px;word-spacing:0px;fill:#000000;fill-opacity:1;stroke:none;stroke-width:0.255392"
       x="31.370901"
       y="266.61639"
       id="text15517"
       inkscape:export-filename="/home/alex/dynajig/left.png"
       inkscape:export-xdpi="96"
       inkscape:export-ydpi="96"><tspan
         sodipodi:role="line"
         style="text-align:center;text-anchor:middle;stroke-width:0.255392"
         x="31.370901"
         y="266.61639"
         id="tspan2232">Please Wait</tspan><tspan
         sodipodi:role="line"
         style="font-size:6.35px;text-align:center;text-anchor:middle;stroke-width:0.255392"
         x="31.370901"
         y="276.32132"
         id="tspan3756">Sending</tspan><tspan
         sodipodi:role="line"
         style="font-size:6.35px;text-align:center;text-anchor:middle;stroke-width:0.255392"
         x="31.370903"
         y="286.02621"
         id="tspan3758">Command.</tspan></text>
    <g
       id="g114048"
       transform="translate(0,-1.3696481)">
      <rect
         id="rect29"
         width="20.47407"
         height="33.127739"
         x="7.550878"
         y="296.66788"
         style="fill:#4d4d4d;stroke-width:0.264583"
         rx="1.4790821"
         ry="1.4790821" />
      <circle
         id="path53-6"
         cx="17.787912"
         cy="307.78629"
         r="7.9433742"
         style="fill:#000000;stroke:none;stroke-width:0.264583;stroke-opacity:1" />
      <circle
         id="path53"
         cx="17.787912"
         cy="307.25711"
         r="7.9433742"
         style="fill:#999999;stroke:none;stroke-width:0.264583;stroke-opacity:1" />
      <circle
         style="fill:#000000;stroke:none;stroke-width:0.2;stroke-miterlimit:4;stroke-dasharray:none;stroke-opacity:1"
         id="path1296"
         cx="9.1427402"
         cy="298.25974"
         r="1.49186" />
      <g
         id="g2159"
         transform="translate(-12.412795,29.641344)">
        <circle
           id="path53-9"
           cx="30.200708"
           cy="277.61575"
           r="2.2734745"
           style="fill:#000000;stroke:none;stroke-width:0.0757263;stroke-opacity:1" />
      </g>
      <circle
         style="fill:#b3b3b3;stroke:none;stroke-width:0.2;stroke-miterlimit:4;stroke-dasharray:none;stroke-opacity:1"
         id="path1296-60"
         cx="17.787912"
         cy="307.25711"
         r="1.49186" />
      <circle
         style="fill:#000000;stroke:none;stroke-width:0.2;stroke-miterlimit:4;stroke-dasharray:none;stroke-opacity:1"
         id="path1296-7"
         cx="26.433088"
         cy="298.25974"
         r="1.49186" />
      <circle
         style="fill:#000000;stroke:none;stroke-width:0.2;stroke-miterlimit:4;stroke-dasharray:none;stroke-opacity:1"
         id="path1296-6"
         cx="26.433088"
         cy="328.20377"
         r="1.49186" />
      <circle
         style="fill:#000000;stroke:none;stroke-width:0.2;stroke-miterlimit:4;stroke-dasharray:none;stroke-opacity:1"
         id="path1296-2"
         cx="9.1427402"
         cy="328.20377"
         r="1.49186" />
    </g>
    <g
       transform="matrix(0.00294664,0,0,-0.00294664,26.692426,330.78089)"
       fill="#000000"
       stroke="none"
       id="g1018">
      <path
         d="m 5962,11219 c -522,-19 -954,-72 -1308,-159 -213,-52 -341,-97 -499,-174 -281,-137 -442,-304 -516,-531 -20,-63 -22,-95 -27,-325 -5,-294 11,-723 33,-890 42,-318 101,-504 236,-743 131,-231 234,-350 774,-899 762,-775 939,-969 967,-1060 21,-70 -18,-146 -169,-333 -98,-121 -142,-169 -679,-741 -457,-486 -582,-627 -709,-798 -347,-468 -419,-756 -408,-1641 5,-410 15,-463 126,-664 233,-424 919,-671 2035,-732 285,-15 1082,-6 1332,15 844,73 1397,239 1717,514 88,76 152,161 214,284 82,164 92,215 94,488 6,903 -56,1219 -311,1602 -155,232 -292,389 -859,978 -508,528 -610,639 -711,773 -87,115 -124,184 -124,229 0,44 41,111 143,238 109,135 166,196 725,779 592,618 682,721 798,917 129,217 197,388 239,598 46,231 50,300 50,851 0,584 2,565 -77,717 -170,328 -667,554 -1438,652 -438,57 -1063,77 -1648,55 z m 958,-359 c 867,-44 1531,-202 1710,-407 117,-132 -92,-304 -533,-437 -1008,-306 -2282,-327 -3327,-55 -317,82 -523,168 -624,259 -83,76 -96,141 -42,202 74,83 200,151 406,219 362,119 848,191 1495,222 158,8 742,6 915,-3 z M 8824,9663 c 12,-460 -19,-704 -111,-888 -84,-167 -297,-430 -743,-914 -118,-129 -298,-325 -399,-435 -434,-472 -579,-656 -670,-845 -33,-70 -36,-83 -36,-166 1,-105 20,-160 114,-329 114,-205 169,-269 826,-966 560,-594 679,-727 818,-915 134,-180 169,-261 208,-480 22,-128 45,-698 35,-905 -16,-350 -122,-486 -498,-644 -366,-153 -827,-245 -1438,-287 -228,-16 -908,-16 -1125,-1 -663,48 -1147,159 -1510,346 -127,65 -207,141 -259,247 -55,111 -63,174 -70,524 -12,625 28,878 175,1098 139,209 247,334 879,1017 539,583 569,617 681,766 89,119 197,314 223,403 44,151 -8,292 -205,554 -122,162 -213,263 -683,757 -591,621 -748,797 -893,998 -108,150 -147,240 -184,422 -16,76 -22,169 -30,458 -6,200 -8,379 -5,398 10,49 35,45 169,-25 333,-175 752,-302 1222,-370 583,-84 1335,-88 1960,-10 573,72 1066,223 1445,443 25,14 57,26 71,26 h 26 z"
         id="path1012" />
      <path
         d="m 8045,8703 c -145,-88 -398,-215 -554,-277 -854,-344 -1643,-306 -2516,120 -82,40 -203,104 -267,143 -65,38 -118,68 -118,65 0,-2 35,-54 78,-115 42,-61 76,-115 75,-119 -6,-23 235,-297 740,-842 471,-508 555,-603 651,-728 135,-175 143,-203 231,-800 15,-96 30,-180 34,-188 8,-15 31,120 62,368 11,91 31,218 44,282 52,254 62,268 780,1068 533,595 705,795 728,850 6,14 45,74 85,133 41,59 73,109 71,111 -2,1 -58,-31 -124,-71 z"
         id="path1014" />
      <path
         d="m 6394,4424 c -41,-101 -108,-232 -150,-295 -82,-124 -170,-176 -1121,-672 -122,-64 -259,-139 -305,-168 -286,-179 -465,-367 -533,-560 -14,-38 -13,-39 15,-56 16,-9 27,-20 25,-24 -30,-47 395,-203 756,-278 520,-107 1147,-142 1814,-100 562,35 1073,142 1462,305 106,44 153,75 153,100 0,7 10,19 23,25 12,6 23,13 25,14 7,6 -48,126 -81,178 -53,83 -178,209 -290,293 -139,105 -281,185 -717,406 -397,200 -615,319 -732,395 -108,71 -157,133 -248,314 l -80,161 z"
         id="path1016" />
    </g>
  </g>
</svg>
